<svg enable-background="new 0 0 800 124.9" viewBox="0 0 800 124.9" xmlns="http://www.w3.org/2000/svg"><path d="m126.2 97.5c0 15.2-12.3 27.5-27.5 27.5h-90c-4.1 0-7.5-3.4-7.5-7.5v-40c0-4.1 3.4-7.5 7.5-7.5h90c15.2 0 27.5 12.3 27.5 27.5z" fill="#5752d0"/><path d="m122.3 111.3c-7.6 13.2-24.4 17.7-37.6 10.1l-78-45c-3.5-2.2-4.7-6.8-2.7-10.3l20-34.7c2.1-3.6 6.7-4.8 10.2-2.7l78 45c13.2 7.6 17.7 24.4 10.1 37.6z" fill="#0376f7"/><path d="m112.3 121.3c-13.2 7.6-30 3.1-37.6-10.1l-45-78c-2.1-3.6-.8-8.2 2.7-10.2l34.7-20c3.6-2.1 8.2-.8 10.2 2.7l45 78c7.7 13.2 3.2 30-10 37.6z" fill="#5ac4f6"/><path d="m98.7 125.1c-15.2 0-27.5-12.3-27.5-27.5v-90c0-4.1 3.4-7.5 7.5-7.5h40c4.1 0 7.5 3.4 7.5 7.5v90c0 15.1-12.3 27.5-27.5 27.5z" fill="#4ed55f"/><path d="m85 121.3c-13.1-7.6-17.6-24.4-10-37.6l45-78c2.1-3.6 6.7-4.8 10.2-2.7l34.7 20c3.6 2.1 4.8 6.7 2.7 10.2l-45 78c-7.6 13.2-24.4 17.7-37.6 10.1z" fill="#fcc803"/><path d="m74.9 111.1c-7.6-13.1-3.1-30 10.1-37.6l78-45c3.6-2.1 8.2-.8 10.2 2.7l20 34.7c2.1 3.6.8 8.2-2.7 10.2l-78 45c-13.2 7.7-30 3.2-37.6-10z" fill="#f99205"/><path d="m71.2 97.5c0-15.2 12.3-27.5 27.5-27.5h90c4.1 0 7.5 3.4 7.5 7.5v40c0 4.1-3.4 7.5-7.5 7.5h-90c-15.2.1-27.5-12.3-27.5-27.5z" fill="#f92d52"/><g fill="#fff"><path d="m88 100.6c0-1.8.3-3.6.9-5.2.6-1.7 1.5-3.1 2.6-4.3 2.1-2.4 4.4-3.9 7-4.5l1.4 2.7c-1.9.6-3.5 1.5-4.9 2.9s-2.3 3-2.9 4.9c1-1.3 2.4-2 4.4-2 1.7 0 3.1.6 4.2 1.8 1.2 1.2 1.7 2.8 1.7 4.7 0 2.1-.7 3.8-2.1 5.1s-3 1.9-4.8 1.9c-2.3 0-4.2-.8-5.5-2.3-1.3-1.6-2-3.5-2-5.7zm3.8.1c0 1.3.3 2.3 1 3.1s1.7 1.2 2.9 1.2c.9 0 1.7-.3 2.3-.9s.9-1.4.9-2.3c0-1-.3-1.9-.9-2.5-.6-.7-1.5-1-2.5-1-1.8 0-3 .8-3.7 2.4z"/><path d="m119.2 108.2h-3.5v-4.9h-9.7v-2.6l8.2-13.8h4l-7.7 12.9h5.2v-5.3h3.5v5.3h2.7v3.5h-2.7z"/><path d="m127.1 93.8-1.9-2.9 5.5-4.1h2.5v21.4h-3.5v-16.4z"/></g><path d="m225.6 83h-7v-12.7h3.5c.9-1.3 1.9-3.5 2.9-6.9s1.6-7.5 1.9-12.3l.3-6.6h21.4v25.8h4.5v12.7h-7v-5.6h-20.4v5.6zm8.7-31.4-.5 5.5c-.2 2.6-.7 5.3-1.5 8.1-.8 2.7-1.4 4.4-2 5.2h10.7v-18.8zm45.9 5.4-14.5 20.4h-6.7v-32.9h7.5v20.4l14.5-20.4h6.6v32.8h-7.5v-20.3zm39.5 11.5 2.9 5.6c-1 1.1-2.5 2-4.5 2.8-1.9.7-4 1-6.2 1-5.1 0-9.2-1.5-12.4-4.6-3.2-3.2-4.8-7.3-4.8-12.3 0-4.9 1.5-9 4.5-12.2s7.2-4.8 12.7-4.8c2.1 0 4 .3 5.8.9s3.2 1.5 4.3 2.5l-3.3 5.6c-2.2-1.3-4.4-2-6.7-2-2.7 0-4.9.9-6.6 2.6s-2.6 4.2-2.6 7.3c0 2.9.9 5.3 2.8 7.2 1.8 1.8 4.2 2.8 7.2 2.8 2.4 0 4.8-.8 6.9-2.4zm16.5 8.9h-7.5v-32.9h7.5v14.3l10.8-14.3h9l-12.3 15.2 13.3 17.7h-9.5l-11.2-15.6v15.6zm21.9-16.4c0-4.8 1.6-8.9 4.8-12.1 3.3-3.3 7.5-4.9 12.6-4.9s9.3 1.5 12.5 4.6c3.3 3.1 4.9 7.2 4.9 12.3 0 4.9-1.7 9-5 12.2s-7.4 4.8-12.5 4.8-9.3-1.5-12.6-4.6c-3.1-3.1-4.7-7.2-4.7-12.3zm8 0c0 2.8.9 5.1 2.8 7.1 1.8 1.9 4 2.9 6.7 2.9 3 0 5.3-.9 7-2.8s2.5-4.3 2.5-7.2c0-3-.9-5.4-2.7-7.2s-4.1-2.8-6.8-2.8c-2.8 0-5 .9-6.8 2.8-1.8 1.8-2.7 4.2-2.7 7.2zm60.9 16.4h-7.5v-13.3h-12v13.2h-7.5v-32.8h7.5v12.6h12v-12.6h7.5zm15.5-25.8h-9.9v-7h27.2v7h-9.8v25.8h-7.5zm31.5 16.2h-12.4v-6.6h12.4zm15-1.6v11.2h-7.5v-32.9h4.7 5.3c4.6 0 8 1 10.1 3.1 2.1 2 3.1 4.6 3.1 7.8 0 3.1-1.1 5.7-3.3 7.8s-5.2 3.2-8.8 3.2c-1.6-.1-2.8-.1-3.6-.2zm3.3-14.7s-.2 0-.4 0-.6 0-1.2 0c-.5 0-1.1 0-1.7 0v7.5c1.3.2 2.5.2 3.4.2 1.3 0 2.3-.3 3.1-1s1.3-1.7 1.3-3c0-2.5-1.5-3.7-4.5-3.7zm39.5 25.9h-19.9v-32.9h19.5v7h-12v5.8h10.6v7h-10.6v6h12.4zm15.5 0h-7.5v-32.9h7.5v14.3l10.7-14.3h9l-12.3 15.2 13.3 17.7h-9.5l-11.2-15.6zm51.8 0h-7.5v-25.8h-7.2l-.7 6.2c-.7 5.7-1.6 10.1-2.8 13.1s-2.6 5-4.4 5.9c-1.7.9-3.9 1.1-6.6.7l.1-7.5c.7.1 1.3.1 1.7 0 .5-.2 1-.5 1.5-1.2s1-1.6 1.5-3c1-2.8 1.7-7.7 2.2-14.6l.5-6.6h21.8v32.8zm12.7 0h-7.6l13.6-32.8h6.7l13.6 32.8h-8l-2.7-6.9h-13zm12.9-14-3.7-9.3-3.7 9.3zm26.2 14h-7.5v-32.9h7.6l10.1 13.8 9.6-13.8h7.1v32.8h-7.5v-20.8l-9.1 12.8h-1.2l-9.1-12.7zm39.6 0h-7.6l13.6-32.8h6.7l13.6 32.8h-8l-2.7-6.9h-13zm12.9-14-3.7-9.3-3.7 9.3zm17.8 9.5c0-1.2.5-2.2 1.4-3 .9-.9 2-1.4 3.4-1.4 1.2 0 2.3.5 3.1 1.4.9.9 1.3 1.9 1.3 3 0 1.3-.4 2.4-1.3 3.4-.8.9-1.9 1.4-3.1 1.4-1.4 0-2.6-.5-3.5-1.4s-1.3-2.1-1.3-3.4zm23.7-6.7v11.2h-7.5v-32.9h4.7 5.3c4.6 0 8 1 10.1 3.1 2.1 2 3.1 4.6 3.1 7.8 0 3.1-1.1 5.7-3.3 7.8s-5.2 3.2-8.8 3.2c-1.6-.1-2.8-.1-3.6-.2zm3.3-14.7s-.2 0-.4 0c-.3 0-.6 0-1.2 0-.5 0-1.1 0-1.7 0v7.5c1.3.2 2.5.2 3.4.2 1.3 0 2.3-.3 3.1-1s1.3-1.7 1.3-3c.1-2.5-1.5-3.7-4.5-3.7zm38.8 26.2h-7.5v-4.4c-4.4 0-8-1.2-10.6-3.4-2.6-2.3-3.9-5.4-3.9-9.4s1.3-7.1 4-9.3 6.2-3.4 10.6-3.6v-3.5h7.5v3.5c4.4.1 7.9 1.3 10.6 3.6s4.1 5.4 4.1 9.3c0 4-1.3 7.1-4 9.4s-6.2 3.4-10.6 3.5v4.3zm6.7-17.2c0-1.8-.6-3.2-1.7-4.3s-2.8-1.6-5-1.7v11.9c2.4 0 4.1-.5 5.1-1.5 1.1-.9 1.6-2.4 1.6-4.4zm-20.8 0c0 3.9 2.2 5.9 6.6 6v-12c-2.2.1-3.8.6-5 1.7-1 1.1-1.6 2.5-1.6 4.3z"/></svg>